<svg id="no-music" enable-background="new 0 0 300 300" height="512" viewBox="0 0 300 300" width="512" xmlns="http://www.w3.org/2000/svg"><g><circle cx="118.83" cy="225.957" fill="#4c241d" r="4.276"/><circle cx="184" cy="128" fill="#e5efef" r="86"/><g><ellipse cx="174" cy="228" fill="#fc8c29" rx="20" ry="14"/><path d="m174 246c-13.457 0-24-7.906-24-18s10.543-18 24-18 24 7.906 24 18-10.543 18-24 18zm0-28c-8.674 0-16 4.58-16 10s7.326 10 16 10 16-4.58 16-10-7.326-10-16-10z" fill="#4c241d"/></g><path d="m194 232c-2.209 0-4-1.791-4-4v-94c0-1.332.664-2.576 1.77-3.32 1.105-.74 2.514-.889 3.742-.383 1.064.434 26.137 10.846 32.264 28.773 2.465 7.213 1.588 14.545-2.605 21.795-1.105 1.912-3.555 2.564-5.467 1.459-1.912-1.107-2.564-3.555-1.459-5.467 3.025-5.227 3.668-10.193 1.967-15.186-3.398-9.967-15.143-17.523-22.211-21.297v87.626c-.001 2.209-1.792 4-4.001 4z" fill="#4c241d"/><g><ellipse cx="78" cy="180" fill="#fc8c29" rx="20" ry="14"/><path d="m78 198c-13.457 0-24-7.906-24-18s10.543-18 24-18 24 7.906 24 18-10.543 18-24 18zm0-28c-8.674 0-16 4.58-16 10s7.326 10 16 10 16-4.58 16-10-7.326-10-16-10z" fill="#4c241d"/></g><g><ellipse cx="150" cy="160" fill="#fc8c29" rx="20" ry="14"/><path d="m150 178c-13.457 0-24-7.906-24-18s10.543-18 24-18 24 7.906 24 18-10.543 18-24 18zm0-28c-8.674 0-16 4.58-16 10s7.326 10 16 10 16-4.58 16-10-7.326-10-16-10z" fill="#4c241d"/></g><path d="m102 180h-8v-94c0-1.797 1.197-3.373 2.93-3.854l72-20c1.205-.328 2.498-.084 3.49.67.996.756 1.58 1.934 1.58 3.184v94h-8v-88.738l-64 17.779z" fill="#4c241d"/><path d="m96.637 96.001h74.726v7.999h-74.726z" fill="#4c241d" transform="matrix(.964 -.268 .268 .964 -21.874 39.508)"/><path d="m141.999 38.14h7.999v231.718h-7.999z" fill="#f53e28" transform="matrix(.707 -.707 .707 .707 -66.132 148.342)"/><path d="m150 270c-66.168 0-120-53.832-120-120s53.832-120 120-120 120 53.832 120 120-53.832 120-120 120zm0-232c-61.758 0-112 50.242-112 112s50.242 112 112 112 112-50.242 112-112-50.242-112-112-112z" fill="#f53e28"/><g fill="#4c241d"><path d="m206.014 109.793c-1.023 0-2.047-.391-2.828-1.172-1.562-1.561-1.562-4.094 0-5.656l11.791-11.793c1.562-1.562 4.094-1.562 5.656 0 1.562 1.561 1.562 4.094 0 5.656l-11.791 11.793c-.781.781-1.805 1.172-2.828 1.172z"/><path d="m217.805 109.793c-1.023 0-2.047-.391-2.828-1.172l-11.791-11.793c-1.562-1.562-1.562-4.096 0-5.656 1.562-1.562 4.094-1.562 5.656 0l11.791 11.793c1.562 1.562 1.562 4.096 0 5.656-.781.781-1.805 1.172-2.828 1.172z"/><path d="m42.014 269.793c-1.023 0-2.047-.391-2.828-1.172-1.562-1.561-1.562-4.094 0-5.656l11.791-11.793c1.562-1.562 4.094-1.562 5.656 0 1.562 1.561 1.562 4.094 0 5.656l-11.791 11.793c-.781.781-1.805 1.172-2.828 1.172z"/><path d="m53.805 269.793c-1.023 0-2.047-.391-2.828-1.172l-11.791-11.793c-1.562-1.562-1.562-4.096 0-5.656 1.562-1.562 4.094-1.562 5.656 0l11.791 11.793c1.562 1.562 1.562 4.096 0 5.656-.781.781-1.805 1.172-2.828 1.172z"/></g></g></svg>